<?xml version="1.0" standalone="no"?>
<!DOCTYPE svg PUBLIC "-//W3C//DTD SVG 1.1//EN" "http://www.w3.org/Graphics/SVG/1.1/DTD/svg11.dtd">
<svg xmlns="http://www.w3.org/2000/svg" xmlns:xlink="http://www.w3.org/1999/xlink" version="1.1" id="Layer_1" x="0px" y="0px" viewBox="0 0 972.2 1017" style="enable-background:new 0 0 972.2 1017;" xml:space="preserve" width="972.2000122070312" height="1017">
<style type="text/css">
	.st0{fill:#FFFFFF;}
</style>
<g>
	<g>
		<g>
			<path class="st0" d="M2037.6,1006.4h-946V10.6h946V1006.4z M1113.2,984.8h902.7V32.2h-902.7V984.8z"/>
		</g>
	</g>
	<g>
		<path class="st0" d="M1849.1,879.8c9.1,0,15.4-4.9,15.4-12.8c0-8.7-7.2-10.9-14.4-13.1c-6.3-2-8.8-3.4-8.8-6.8    c0-3.3,2.7-5.4,6.8-5.4c4.9,0,7.6,2.6,9.1,6.1l6-3.5c-2.7-5.8-8-9.6-15.1-9.6c-7.3,0-14,4.5-14,12.5c0,8.2,6.6,10.7,13.4,12.7    c6.4,2,9.8,3.3,9.8,7.1c0,3.2-2.4,5.7-8.1,5.7c-5.9,0-9.3-2.9-10.8-7.3l-6.2,3.6C1834.6,875.5,1840.5,879.8,1849.1,879.8     M1745.9,842.2h10.2c3.8,0,6.8,3.2,6.8,7.2c0,4.1-3,7.2-6.8,7.2h-10.2V842.2z M1763.6,878.9h7.8l-9.8-16.9c5.1-2.1,8.7-7,8.7-12.6    c0-7.8-6.2-14-14-14h-17.4v43.4h7.1v-15.8h8.4L1763.6,878.9z M1648.9,863.5l6.9-19.6l6.9,19.6H1648.9z M1668.1,878.9h7.7    l-15.7-43.4h-8.5l-15.8,43.4h7.8l3-8.8h18.5L1668.1,878.9z M1557.2,872.1v-36.6h-7.1v43.4h24.8v-6.8H1557.2z M1468.7,872.1v-36.6    h-7.1v43.4h24.8v-6.8H1468.7z M1377.5,872.1v-11.7h17.4v-6.8h-17.4v-11.3h18.9v-6.8h-26.1v43.4h26.4v-6.8L1377.5,872.1    L1377.5,872.1z M1287.4,879.8c8,0,15.1-4.1,18.7-10.4l-6.2-3.5c-2.2,4.3-7,7-12.5,7c-9.4,0-15.6-6.7-15.6-15.6    c0-8.9,6.2-15.6,15.6-15.6c5.5,0,10.2,2.7,12.5,7l6.2-3.6c-3.7-6.3-10.8-10.4-18.7-10.4c-13.3,0-22.7,10-22.7,22.6    C1264.7,869.9,1274.1,879.8,1287.4,879.8"/>
		<path class="st0" d="M1693.2,484.8c0,0,3-6.3,3.6-8.2c0.5-1.9,1.2-2.2,2.8-2c1.6,0.2,1.9-1.2,2.4-1.7c0.7-0.8,1.9-1.3,4.3,0.4    c2.4,1.7,3.9,2,5.4,2.3c1.5,0.3,4.9,2.4,5.5,3.6c0.6,1.2,0.3,1.5-2.1,1.1c-2.3-0.4-5.1,0.6-5.4,2.5c-0.2,1.8-0.4,5,1.6,6.2    c1.9,1.2,1.1,2.2-1.7,3.4c-2.8,1.1-2.5,2.5-4.2,2.8c-1.7,0.2-3.6-0.6-4.5,0c-1,0.6,0.4,1.9-2.5,1.2c-2.9-0.8-2.4-1.8-5.5-2.3    C1689.5,493.5,1693.2,484.8,1693.2,484.8"/>
		<path class="st0" d="M1731.9,421.4c3.2-0.1,6.5,0.1,12.6,2.1c0.8,0.3,0.9,0.2,1.9,2.7c1,2.5,1.3,2.3,2.3,3c1,0.8,1.7,2.4,1.5,5.4    c-0.3,3,0.2,4.1-1.5,9c-1.6,4.9-1.3,11.8-1.3,11.8s0,3.4,3.2,6.6c3.2,3.2,3.3,3.1,3.6,4c0.3,0.9-0.1,1.8-2.5,0.8    c-2.5-1.1-2.5-0.8-3.8,0.1c-1.3,0.8-1.1,1.4-4.2,1.8c-3.1,0.5-1.8,2.8-3.1,1.7c-1.3-1-3.2-6-7.5-11.3c-1.1-1.4-0.5-3.1-3.7-5.7    c-1.7-1.4-5-1.6-6.4-6.1c-0.4-1.2-0.4-2.5,0-5.2c0.4-2.8,0.1-6.5-0.8-8.9c-0.9-2.4,0-6.8,2.1-9    C1726.3,421.8,1725.4,421.5,1731.9,421.4"/>
		<polygon class="st0" points="1283.1,137.2 1283.1,323.8 1391,323.8 1391,288.6 1319.9,288.6 1319.9,137.2   "/>
		<polygon class="st0" points="1735.4,137.2 1735.4,323.8 1850.8,323.8 1850.8,288.6 1772.2,288.6 1772.2,246.8 1842.9,246.8     1842.9,212.1 1772.2,212.1 1772.2,172.4 1849.5,172.4 1849.5,137.2   "/>
		<polygon class="st0" points="1391,520.1 1391,555.3 1283.1,555.3 1283.1,368.7 1319.9,368.7 1319.9,520.1   "/>
		<polygon class="st0" points="1507.9,137.2 1507.9,323.8 1623.4,323.8 1623.4,288.6 1544.7,288.6 1544.7,246.8 1615.4,246.8     1615.4,212.1 1544.7,212.1 1544.7,172.4 1622,172.4 1622,137.2   "/>
		<polygon class="st0" points="1372.7,600.2 1372.7,714 1292.6,600.2 1264.7,600.2 1264.7,786.8 1301.5,786.8 1301.5,672.7     1381.5,786.8 1409.4,786.8 1409.4,600.2   "/>
		<path class="st0" d="M1721.8,725.8V600.2h36.5v122.6c0,18.1,9.6,31.8,34.7,31.8c25,0,34.6-13.6,34.6-31.8V600.2h36.8v125.6    c0,40.2-30.4,64.8-71.5,64.8C1752.2,790.5,1721.8,766,1721.8,725.8"/>
		<path class="st0" d="M1602.7,753.2h-74.4l-11.2,33.6h-39.7l65.3-186.6h45.6l65.6,186.6h-40L1602.7,753.2z M1591.2,718.8    l-25.6-76.2l-25.6,76.2H1591.2z"/>
		<path class="st0" d="M1602.7,521.7h-74.4l-11.2,33.6h-39.7l65.3-186.6h45.6l65.6,186.6h-40L1602.7,521.7z M1591.2,487.3    l-25.6-76.2l-25.6,76.2C1540.1,487.3,1591.2,487.3,1591.2,487.3z"/>
		<path class="st0" d="M1716.5,555.7c0,0-0.6-5.4-1.6-7c0.8-1.4,4.3-8,4.1-12.7c0-2,0.7-5,0-9.3c-0.7-4.3-3.7-23.3-0.6-28.7    c0.9-2.7,4.3-3.8,4.3-3.8s1.7-0.5,2.8-1.1c1.1-0.6,1.6-0.8,2.2,0c0.6,0.8,1.9,1.9,2.9,3.3c1,1.5,6.1,4.8,10.8,3.8    c4.7-1,8-6.4,8-6.4s0.9-1.8,0.9-2.7c0-0.9,0.1-2.8,0.6-3.9c0.5-1,2.1-2.3,2.1-3.1c0-0.8,3.2-2.8,3.9-4.7c0.8-1,1.1-2.5,2-3    c0,0,1.7-4.1,1.6-6c0.8-1.2,2.1-2.4,2.1-2.4s2.4-0.6,5.6,0c2.8,1.4,4.7,2.7,5,2.7c0.3,0,2.9,1.9,3.7,3.5s1.8,5,3.8,6.4    c2.5,0.9,4.6,2.5,14.9,0c5-2.1,8.1-4.2,8.1-4.2s1.9-2.3,2.2-2.9c0.3-0.5,1.9-4.5,3-5.1l1-0.6c0,0,1.4-2.3,1.6-2.7    c0.1-0.3,1.7-2.4,1.5-3.6c-0.2-1.1-0.2-2-0.1-2.6c0.2-0.5,0.8-3.4,0.6-4.4c-0.1-1,0.2-2.1-0.6-3.1c-0.6-1.4-0.8-2-0.6-2.3    c0.2-0.3,0.3-1.6,1-1.8c0.6-0.2,4.1-2.5,4.8-4.5c0.7-2,1.6-4.6,1.9-4.9c0-0.6,0.5-2.9,1-3.6c0.5-0.6,1.4-1.9,1.5-2.7    c0.2-0.8,1.4-3.8,2.4-3.9c1-0.1,1.3-0.4,2.1-0.7c0.8-0.3,2.2-1.5,3.8-1.8c1.6-0.3,8.5-4.5,9.7-8.7c0-1.1,0.6-1.9,0.6-1.9    s1.9-0.9,2-1.5c0.1-0.5,0-0.8,0.5-1.4c0.5-0.5,0.9-1.9,0.9-2.2c0-0.3,0.1-2.3,0.6-2.9c0.5-0.5,0.9-1.7,0.6-2.3    c-0.2-0.6-0.4-1.9,0.1-2.5c0.6-1.2,0.2-1.9,0.6-2.4s2.4-2.8,2.6-3.6c0.1-0.8,1.2-3.4,1.7-3.7c0.4-0.3,1.5-3.7,1.6-4.8    s2.9-4.3,3.4-5.2c0.4-1,0.6-1.9,1.4-2.3c0.9-1.1,1.8-3,2.1-3.1c0.9-0.4,1.9-2.3,1.9-3c0-0.6,1.6-3.1,1.9-3.1c0.3,0,1.4-3.3,1.9-3    c1,0.5,2,0.8,2,1.4s0.3,2.1,1,2.2c0.6,0.1,3.1,0.6,5,0.3c1.9-0.3,5.1-2.5,5.2-3.1c0.1-0.6,0.8-1.2,1.2-1.4    c0.4-0.1,3.7-2.3,3.7-4.2c0-1.8,0.1-1.8,0.6-2c0.5-0.2,0.9-1.2,1.1-1.7c0.2-0.4-0.8-1.5,0-1.5c0.8,0,0-0.2,0.8,0    c0.8,0.2,0.6-1,1.2-1.2c0.5-0.2,1.8,0.3,2,0c0.2-0.3,0.6-0.5,1.4-0.1c0.6,0.5,0.6,1.2,0.6,1.8v1.5c0,0-0.3,0.9,0,1.2s1.7,1,2,1.5    c0.3,0.4,0.8,1.8,0.8,2.2c0,0.4,1,0.6,1,1.4c0,0.6-0.5,1.6-0.6,2c-0.1,0.4-0.2,2.2-0.5,3c-0.3,0.8-0.3,1.6-0.8,1.8    c-0.4,0.2-1.5,0.8-1.5,1.2c0,0.5-1.6-0.1-2.1,0.6c-0.5,0.8-3,1.4-3.4,2.2c-0.3,0.9-0.3,1.6-0.6,1.8c-0.3,0.2-1.1,0.2-1.4,1.5    c-0.2,1.2,0.3,2.3,0.3,2.3s0.2,1.4,0.3,2.6c0.1,1.2,0.4,1.9,0.6,2.3c0.2,0.4-1-1.2-1.6-0.6c-0.5,0.5-0.3,2.3,0,2.7    c0.3,0.3,1.1,2.6,0.8,2.6c-0.3,0-1.5-0.1-1.8-1.1c-0.3-1-0.6-1.8-0.4-2.3c0.2-0.5,1.2-1.8,0.8-2.8s-1.5-2.9-1.9-3.2    c-0.4-0.3-1.2-0.6-1.8-0.5c-0.5,0.1-1,0.2-0.9,0.9l0.1,0.6l0.1,0.5c0,0-1.4-0.1-1.5-0.6c-0.1-0.5-0.9-0.9-2-0.6    c-1.1,0.2-4.4,1.7-4.5,2.4c-0.1,0.8-0.5,2.3-0.5,2.3s1.2,0.9,0.6,1.4c-0.5,0.4-1.4,0.8-1.6,1.2c-0.2,0.4-1.2,1.4-1.6,2.1    c-0.3,0.8-1.4,2.1-1.4,3c0,0.9,0.2,2,0.6,2.4c0.4,0.4,0.6,3.8,1,4.6s0.9,0.8,1.5,1.7c0.5,0.9,0.1,1.6,1.2,1.6s0.3-1.2,1.1,0    c0.8,1.2,0.6,2,0.5,2.7c-0.1,0.6-0.8,0.3-0.9,1.1c-0.1,0.8-0.2,2.7,0.8,3.7c1,1,1.7,0.9,1.7,1.7c0,0.9-0.4,1,0.1,1.7    c0.5,0.8,0.8,0.5,1.1,1.1c0.3,0.5,0.2,1.9,0.9,2c0.6,0.1,0.9,1,0.8,1.7c-0.1,0.6-0.5,1.4,0.1,1.7s2,0.8,2.3,0    c0.3-0.8,0.6-1.5,0.9-0.9c0.2,0.5-0.1,0.4,0.1,1.1c0.2,0.6,0.6,0.8,0.6,1.5c0,0.6,0.6,0.2,0.9,1.4c0.2,1.1,0.2,1.8,0.2,2.7    c0,0.9-0.6,1.7-0.4,2.2c0.2,0.5,0.4,1.9,0.3,2.3c-0.1,0.4-0.3,2.1-1.4,1.6c-1-0.5-2.3-2.7-2.6-3.8c-0.2-1.1,0.1-2.4-0.4-2.8    c-0.5-0.3-2.1-0.6-2.7-0.2c-0.6,0.4-0.8,0.3-0.9,1.5c-0.1,1.1,0,1.8-0.5,2.3c-0.5,0.5-1.7,0.3-1.8,1.4c-0.1,1,0.6,4.4,0.1,5    s-0.6,1-0.6,1.8s0.5,2.4,0,3.6c-0.5,1.1-2.8,4.1-3.6,4.7c-0.8,0.5-1.4,0.4-1.8,0.9c-0.4,0.4-1.9,1.9-2,2.4    c-0.1,0.5-1.5,0.8-2.2,0.8c-0.8,0-1,0.8-1.5,1.7c-0.4,0.9-0.2,2.7-0.8,3.2c-0.5,0.5-0.6,0.9-1.1,1.5c-0.4,0.5-0.9,0.8-0.9,1.7    s-0.1,1.4-0.4,2.1c-0.3,0.8-1.4,0.4-1.7,1.3c-0.3,0.9-0.9,1.4-0.2,2.4c0.6,1,1.6,2,2.1,2s1.1-0.1,1.4-0.5c0.2-0.4,0.2,1.4,0.8,1.2    c0.5-0.1,1.2-0.3,1.2-0.3s1,0.3,1.2-0.3c0.2-0.6,0.3-1,1.1-1.5c0.8-0.4,4.7-4.4,5-5.6c0.3-1.2,0.8-1.7,0.8-2.3s-0.1-0.9,0.5-1.1    c0.6-0.2-0.3-0.6,0.6-0.2c1,0.4,1.6,0.3,1.6,1.1s-0.2,0.5-0.1,1.6c0.1,1-0.2,1.2-0.1,2c0.1,0.8-1,1.2-1,2.7s0.8,2.5,0.5,3    c-0.2,0.5,0,1.4,0,2s-0.3,1.4-0.5,2.5c-0.2,1.2,0.5,2.9,0,4.7s0,3.2,0,3.2s-0.2,1.2-0.8,1.8c0.2,1,0.1,4.7,0.8,5.3    c0.6,0.6,0.6,1.2,0.6,1.2s-1.9-0.2-2.5,0.1c-0.5,0.3-0.4,0.4-1.4,0.2c-0.9-0.2-2.3-0.2-2.7-0.1c-0.3,0.1-1.8,0.9-1.9,1.8    c-0.1,0.9-1,2.5-1,3s-0.5,0.5-0.5,1.4c0,0.9,0.3,2.2,0.2,2.2c-0.1-0.1-0.6,0.4-0.9,0.9c0,0,0.2,0.5-0.6,1.6    c-0.1,1.2-0.1,0.9-0.1,1.2c-0.1,0.3-0.7,0-0.7,0.6s0.3,1.1,0.2,1.5c-0.2,0.3-0.6,1-0.9,1.4s-2.3,3.1-2.7,5.6    c-0.3,2.6-0.4,1.5-0.3,2c0.1,0.5,0.1,0.5,0.1,1c0.1,0.4,0.1,0.8,0.2,1s0.1,0.5,0,0.9c-0.1,0.3-0.4,0.2-0.4,0.8    c0.1,0.5,0.2,0.9,0.2,1.4c0,0.5,0.2,0.6-0.3,1.2c-0.4,0.9-0.3,1.2-0.2,1.7c0.1,0.5-0.1,1.1-0.2,1.5c-0.1,0.3-0.6,1-0.5,1.6    c0.1,0.5,0.3,0.6,0.3,1.2c0.1,0.5-0.1,0.5,0.2,0.8s0.4,0.1,0.2,0.5c-0.3,0.5-0.1,1-0.1,1.8s0.1,1.4,0,2.1s-0.4,1.5-0.3,1.8    c0.1,0.3,0.2,0.5,0.4,1.1c0.2,0.5,0.5,0.9,0.6,1.5c0.1,0.6,0.1,1,0.2,1.6c0.1,0.6,1.1,1.6,1.1,1.9c0,0.4,0.3,0.3,0.3,0.6    c0,0.3-0.2,0.1,0,0.8c0.2,0.6,0.8,2.8,1.1,3.2s0.6,1.1,1,1.7c0.3,0.6,1,0.9,1.1,1.9c0.1,1-0.1,1.8-0.2,2.1c-0.1,0.3,0,0.7,0.1,1.2    c0.1,0.5,0.2,0.5-0.2,1.2c-0.4,0.6-0.9,0.9-0.8,1.5c0.1,0.6-0.1,0.3-0.1,1.1c0.1,0.8,0.1,0.9-0.2,1.4c-0.3,0.5-0.2,0.6-0.6,1.5    c-0.4,0.8,0.2,1.7-0.4,1.7h-1.6h-56.7c0,0-2.7,0.4-3.1,0c-0.4-0.4-1.2-1.2-1.4-0.8c-0.1,0.4,0.1,0.6-0.1,0.6    c-0.2,0-8.1-0.4-8.1-0.4s-0.6-0.2-0.7-0.6c-0.1-0.4-0.4-0.3-0.5-0.5c-0.2-0.2-1-0.5-1-0.5s-0.2,0.3,0,0.8c0.2,0.5,0.4,1,0.2,0.9    c-0.2-0.1-20.4-0.8-20.4-0.8l-0.4-0.5l-0.5,0.4L1716.5,555.7z"/>
	</g>
</g>
<g>
	<g>
		<g>
			<path d="M959.1,1006.4h-946V10.6h946V1006.4z M34.8,984.8h902.7V32.2H34.8V984.8z"/>
		</g>
	</g>
	<g>
		<path d="M770.6,879.8c9.1,0,15.4-4.9,15.4-12.8c0-8.7-7.2-10.9-14.4-13.1c-6.3-2-8.8-3.4-8.8-6.8c0-3.3,2.7-5.4,6.8-5.4    c4.9,0,7.6,2.6,9.1,6.1l6-3.5c-2.7-5.8-8-9.6-15.1-9.6c-7.3,0-14,4.5-14,12.5c0,8.2,6.6,10.7,13.4,12.7c6.4,2,9.8,3.3,9.8,7.1    c0,3.2-2.4,5.7-8.1,5.7c-5.9,0-9.3-2.9-10.8-7.3l-6.2,3.6C756.1,875.5,762,879.8,770.6,879.8 M667.5,842.2h10.2    c3.8,0,6.8,3.2,6.8,7.2c0,4.1-3,7.2-6.8,7.2h-10.2V842.2z M685.1,878.9h7.8l-9.8-16.9c5.1-2.1,8.7-7,8.7-12.6c0-7.8-6.2-14-14-14    h-17.4v43.4h7.1v-15.8h8.4L685.1,878.9z M570.4,863.5l6.9-19.6l6.9,19.6H570.4z M589.6,878.9h7.7l-15.7-43.4H573l-15.8,43.4h7.8    l3-8.8h18.5L589.6,878.9z M478.8,872.1v-36.6h-7.1v43.4h24.8v-6.8H478.8z M390.3,872.1v-36.6h-7.1v43.4h24.8v-6.8H390.3z     M299,872.1v-11.7h17.4v-6.8H299v-11.3h18.9v-6.8h-26.1v43.4h26.4v-6.8L299,872.1L299,872.1z M208.9,879.8c8,0,15.1-4.1,18.7-10.4    l-6.2-3.5c-2.2,4.3-7,7-12.5,7c-9.4,0-15.6-6.7-15.6-15.6c0-8.9,6.2-15.6,15.6-15.6c5.5,0,10.2,2.7,12.5,7l6.2-3.6    c-3.7-6.3-10.8-10.4-18.7-10.4c-13.3,0-22.7,10-22.7,22.6C186.2,869.9,195.7,879.8,208.9,879.8"/>
		<path d="M614.7,484.8c0,0,3-6.3,3.6-8.2c0.5-1.9,1.2-2.2,2.8-2c1.6,0.2,1.9-1.2,2.4-1.7c0.7-0.8,1.9-1.3,4.3,0.4    c2.4,1.7,3.9,2,5.4,2.3c1.5,0.3,4.9,2.4,5.5,3.6c0.6,1.2,0.3,1.5-2.1,1.1c-2.3-0.4-5.1,0.6-5.4,2.5c-0.2,1.8-0.4,5,1.6,6.2    c1.9,1.2,1.1,2.2-1.7,3.4c-2.8,1.1-2.5,2.5-4.2,2.8c-1.7,0.2-3.6-0.6-4.5,0c-1,0.6,0.4,1.9-2.5,1.2c-2.9-0.8-2.4-1.8-5.5-2.3    C611,493.5,614.7,484.8,614.7,484.8"/>
		<path d="M653.5,421.4c3.2-0.1,6.5,0.1,12.6,2.1c0.8,0.3,0.9,0.2,1.9,2.7c1,2.5,1.3,2.3,2.3,3c1,0.8,1.7,2.4,1.5,5.4    c-0.3,3,0.2,4.1-1.5,9c-1.6,4.9-1.3,11.8-1.3,11.8s0,3.4,3.2,6.6c3.2,3.2,3.3,3.1,3.6,4c0.3,0.9-0.1,1.8-2.5,0.8    c-2.5-1.1-2.5-0.8-3.8,0.1c-1.3,0.8-1.1,1.4-4.2,1.8c-3.1,0.5-1.8,2.8-3.1,1.7c-1.3-1-3.2-6-7.5-11.3c-1.1-1.4-0.5-3.1-3.7-5.7    c-1.7-1.4-5-1.6-6.4-6.1c-0.4-1.2-0.4-2.5,0-5.2c0.4-2.8,0.1-6.5-0.8-8.9c-0.9-2.4,0-6.8,2.1-9C647.8,421.8,647,421.5,653.5,421.4    "/>
		<polygon points="204.6,137.2 204.6,323.8 312.6,323.8 312.6,288.6 241.4,288.6 241.4,137.2   "/>
		<polygon points="656.9,137.2 656.9,323.8 772.4,323.8 772.4,288.6 693.8,288.6 693.8,246.8 764.4,246.8 764.4,212.1 693.8,212.1     693.8,172.4 771.1,172.4 771.1,137.2   "/>
		<polygon points="312.6,520.1 312.6,555.3 204.6,555.3 204.6,368.7 241.4,368.7 241.4,520.1   "/>
		<polygon points="429.5,137.2 429.5,323.8 544.9,323.8 544.9,288.6 466.3,288.6 466.3,246.8 536.9,246.8 536.9,212.1 466.3,212.1     466.3,172.4 543.6,172.4 543.6,137.2   "/>
		<polygon points="294.2,600.2 294.2,714 214.2,600.2 186.2,600.2 186.2,786.8 223,786.8 223,672.7 303,786.8 331,786.8 331,600.2       "/>
		<path d="M643.4,725.8V600.2h36.5v122.6c0,18.1,9.6,31.8,34.7,31.8s34.6-13.6,34.6-31.8V600.2H786v125.6    c0,40.2-30.4,64.8-71.5,64.8C673.8,790.5,643.4,766,643.4,725.8"/>
		<path d="M524.2,753.2h-74.4l-11.2,33.6H399l65.3-186.6h45.6l65.6,186.6h-40L524.2,753.2z M512.8,718.8l-25.6-76.2l-25.6,76.2    H512.8z"/>
		<path d="M524.2,521.7h-74.4l-11.2,33.6H399l65.3-186.6h45.6l65.6,186.6h-40L524.2,521.7z M512.8,487.3l-25.6-76.2l-25.6,76.2    C461.6,487.3,512.8,487.3,512.8,487.3z"/>
		<path d="M638,555.7c0,0-0.6-5.4-1.6-7c0.8-1.4,4.3-8,4.1-12.7c0-2,0.7-5,0-9.3s-3.7-23.3-0.6-28.7c0.9-2.7,4.3-3.8,4.3-3.8    s1.7-0.5,2.8-1.1c1.1-0.6,1.6-0.8,2.2,0c0.6,0.8,1.9,1.9,2.9,3.3c1,1.5,6.1,4.8,10.8,3.8c4.7-1,8-6.4,8-6.4s0.9-1.8,0.9-2.7    c0-0.9,0.1-2.8,0.6-3.9c0.5-1,2.1-2.3,2.1-3.1c0-0.8,3.2-2.8,3.9-4.7c0.8-1,1.1-2.5,2-3c0,0,1.7-4.1,1.6-6    c0.8-1.2,2.1-2.4,2.1-2.4s2.4-0.6,5.6,0c2.8,1.4,4.7,2.7,5,2.7c0.3,0,2.9,1.9,3.7,3.5c0.8,1.6,1.8,5,3.8,6.4    c2.5,0.9,4.6,2.5,14.9,0c5-2.1,8.1-4.2,8.1-4.2s1.9-2.3,2.2-2.9c0.3-0.5,1.9-4.5,3-5.1l1-0.6c0,0,1.4-2.3,1.6-2.7    c0.1-0.3,1.7-2.4,1.5-3.6c-0.2-1.1-0.2-2-0.1-2.6c0.2-0.5,0.8-3.4,0.6-4.4c-0.1-1,0.2-2.1-0.6-3.1c-0.6-1.4-0.8-2-0.6-2.3    c0.2-0.3,0.3-1.6,1-1.8c0.6-0.2,4.1-2.5,4.8-4.5c0.7-2,1.6-4.6,1.9-4.9c0-0.6,0.5-2.9,1-3.6c0.5-0.6,1.4-1.9,1.5-2.7    c0.2-0.8,1.4-3.8,2.4-3.9c1-0.1,1.3-0.4,2.1-0.7c0.8-0.3,2.2-1.5,3.8-1.8c1.6-0.3,8.5-4.5,9.7-8.7c0-1.1,0.6-1.9,0.6-1.9    s1.9-0.9,2-1.5c0.1-0.5,0-0.8,0.5-1.4c0.5-0.5,0.9-1.9,0.9-2.2c0-0.3,0.1-2.3,0.6-2.9c0.5-0.5,0.9-1.7,0.6-2.3    c-0.2-0.6-0.4-1.9,0.1-2.5c0.6-1.2,0.2-1.9,0.6-2.4c0.4-0.5,2.4-2.8,2.6-3.6c0.1-0.8,1.2-3.4,1.7-3.7c0.4-0.3,1.5-3.7,1.6-4.8    c0.1-1.1,2.9-4.3,3.4-5.2c0.4-1,0.6-1.9,1.4-2.3c0.9-1.1,1.8-3,2.1-3.1c0.9-0.4,1.9-2.3,1.9-3c0-0.6,1.6-3.1,1.9-3.1    s1.4-3.3,1.9-3c1,0.5,2,0.8,2,1.4s0.3,2.1,1,2.2c0.6,0.1,3.1,0.6,5,0.3c1.9-0.3,5.1-2.5,5.2-3.1s0.8-1.2,1.2-1.4    c0.4-0.1,3.7-2.3,3.7-4.2c0-1.8,0.1-1.8,0.6-2c0.5-0.2,0.9-1.2,1.1-1.7c0.2-0.4-0.8-1.5,0-1.5c0.8,0,0-0.2,0.8,0    c0.8,0.2,0.6-1,1.2-1.2c0.5-0.2,1.8,0.3,2,0c0.2-0.3,0.6-0.5,1.4-0.1c0.6,0.5,0.6,1.2,0.6,1.8v1.5c0,0-0.3,0.9,0,1.2s1.7,1,2,1.5    c0.3,0.4,0.8,1.8,0.8,2.2c0,0.4,1,0.6,1,1.4c0,0.6-0.5,1.6-0.6,2c-0.1,0.4-0.2,2.2-0.5,3c-0.3,0.8-0.3,1.6-0.8,1.8    c-0.4,0.2-1.5,0.8-1.5,1.2c0,0.5-1.6-0.1-2.1,0.6c-0.5,0.8-3,1.4-3.4,2.2c-0.3,0.9-0.3,1.6-0.6,1.8c-0.3,0.2-1.1,0.2-1.4,1.5    c-0.2,1.2,0.3,2.3,0.3,2.3s0.2,1.4,0.3,2.6s0.4,1.9,0.6,2.3c0.2,0.4-1-1.2-1.6-0.6c-0.5,0.5-0.3,2.3,0,2.7    c0.3,0.3,1.1,2.6,0.8,2.6c-0.3,0-1.5-0.1-1.8-1.1s-0.6-1.8-0.4-2.3c0.2-0.5,1.2-1.8,0.8-2.8s-1.5-2.9-1.9-3.2    c-0.4-0.3-1.2-0.6-1.8-0.5s-1,0.2-0.9,0.9l0.1,0.6l0.1,0.5c0,0-1.4-0.1-1.5-0.6c-0.1-0.5-0.9-0.9-2-0.6c-1.1,0.2-4.4,1.7-4.5,2.4    s-0.5,2.3-0.5,2.3s1.2,0.9,0.6,1.4c-0.5,0.4-1.4,0.8-1.6,1.2c-0.2,0.4-1.2,1.4-1.6,2.1c-0.3,0.8-1.4,2.1-1.4,3    c0,0.9,0.2,2,0.6,2.4s0.6,3.8,1,4.6c0.4,0.8,0.9,0.8,1.5,1.7c0.5,0.9,0.1,1.6,1.2,1.6c1.1,0,0.3-1.2,1.1,0c0.8,1.2,0.6,2,0.5,2.7    c-0.1,0.6-0.8,0.3-0.9,1.1c-0.1,0.8-0.2,2.7,0.8,3.7c1,1,1.7,0.9,1.7,1.7c0,0.9-0.4,1,0.1,1.7c0.5,0.8,0.8,0.5,1.1,1.1    c0.3,0.5,0.2,1.9,0.9,2c0.6,0.1,0.9,1,0.8,1.7c-0.1,0.6-0.5,1.4,0.1,1.7c0.6,0.3,2,0.8,2.3,0c0.3-0.8,0.6-1.5,0.9-0.9    c0.2,0.5-0.1,0.4,0.1,1.1c0.2,0.6,0.6,0.8,0.6,1.5c0,0.6,0.6,0.2,0.9,1.4c0.2,1.1,0.2,1.8,0.2,2.7c0,0.9-0.6,1.7-0.4,2.2    c0.2,0.5,0.4,1.9,0.3,2.3c-0.1,0.4-0.3,2.1-1.4,1.6c-1-0.5-2.3-2.7-2.6-3.8c-0.2-1.1,0.1-2.4-0.4-2.8c-0.5-0.3-2.1-0.6-2.7-0.2    c-0.6,0.4-0.8,0.3-0.9,1.5s0,1.8-0.5,2.3c-0.5,0.5-1.7,0.3-1.8,1.4s0.6,4.4,0.1,5c-0.5,0.6-0.6,1-0.6,1.8s0.5,2.4,0,3.6    c-0.5,1.1-2.8,4.1-3.6,4.7c-0.8,0.5-1.4,0.4-1.8,0.9c-0.4,0.4-1.9,1.9-2,2.4c-0.1,0.5-1.5,0.8-2.2,0.8c-0.8,0-1,0.8-1.5,1.7    c-0.4,0.9-0.2,2.7-0.8,3.2c-0.5,0.5-0.6,0.9-1.1,1.5c-0.4,0.5-0.9,0.8-0.9,1.7s-0.1,1.4-0.4,2.1c-0.3,0.8-1.4,0.4-1.7,1.3    c-0.3,0.9-0.9,1.4-0.2,2.4c0.6,1,1.6,2,2.1,2s1.1-0.1,1.4-0.5c0.2-0.4,0.2,1.4,0.8,1.2c0.5-0.1,1.2-0.3,1.2-0.3s1,0.3,1.2-0.3    c0.2-0.6,0.3-1,1.1-1.5c0.8-0.4,4.7-4.4,5-5.6c0.3-1.2,0.8-1.7,0.8-2.3s-0.1-0.9,0.5-1.1c0.6-0.2-0.3-0.6,0.6-0.2    c1,0.4,1.6,0.3,1.6,1.1s-0.2,0.5-0.1,1.6c0.1,1-0.2,1.2-0.1,2c0.1,0.8-1,1.2-1,2.7s0.8,2.5,0.5,3c-0.2,0.5,0,1.4,0,2    s-0.3,1.4-0.5,2.5c-0.2,1.2,0.5,2.9,0,4.7c-0.5,1.8,0,3.2,0,3.2s-0.2,1.2-0.8,1.8c0.2,1,0.1,4.7,0.8,5.3c0.6,0.6,0.6,1.2,0.6,1.2    s-1.9-0.2-2.5,0.1c-0.5,0.3-0.4,0.4-1.4,0.2c-0.9-0.2-2.3-0.2-2.7-0.1c-0.3,0.1-1.8,0.9-1.9,1.8c-0.1,0.9-1,2.5-1,3    s-0.5,0.5-0.5,1.4c0,0.9,0.3,2.2,0.2,2.2c-0.1-0.1-0.6,0.4-0.9,0.9c0,0,0.2,0.5-0.6,1.6c-0.1,1.2-0.1,0.9-0.1,1.2    c-0.1,0.3-0.7,0-0.7,0.6s0.3,1.1,0.2,1.5c-0.2,0.3-0.6,1-0.9,1.4s-2.3,3.1-2.7,5.6c-0.3,2.6-0.4,1.5-0.3,2c0.1,0.5,0.1,0.5,0.1,1    c0.1,0.4,0.1,0.8,0.2,1c0.1,0.3,0.1,0.5,0,0.9c-0.1,0.3-0.4,0.2-0.4,0.8c0.1,0.5,0.2,0.9,0.2,1.4c0,0.5,0.2,0.6-0.3,1.2    c-0.4,0.9-0.3,1.2-0.2,1.7c0.1,0.5-0.1,1.1-0.2,1.5c-0.1,0.3-0.6,1-0.5,1.6c0.1,0.5,0.3,0.6,0.3,1.2c0.1,0.5-0.1,0.5,0.2,0.8    c0.2,0.2,0.4,0.1,0.2,0.5c-0.3,0.5-0.1,1-0.1,1.8s0.1,1.4,0,2.1c-0.1,0.6-0.4,1.5-0.3,1.8c0.1,0.3,0.2,0.5,0.4,1.1    c0.2,0.5,0.5,0.9,0.6,1.5c0.1,0.6,0.1,1,0.2,1.6c0.1,0.6,1.1,1.6,1.1,1.9c0,0.4,0.3,0.3,0.3,0.6c0,0.3-0.2,0.1,0,0.8    c0.2,0.6,0.8,2.8,1.1,3.2c0.4,0.4,0.6,1.1,1,1.7c0.3,0.6,1,0.9,1.1,1.9c0.1,1-0.1,1.8-0.2,2.1c-0.1,0.3,0,0.7,0.1,1.2    c0.1,0.5,0.2,0.5-0.2,1.2c-0.4,0.6-0.9,0.9-0.8,1.5c0.1,0.6-0.1,0.3-0.1,1.1c0.1,0.8,0.1,0.9-0.2,1.4c-0.3,0.5-0.2,0.6-0.6,1.5    c-0.4,0.8,0.2,1.7-0.4,1.7h-1.6h-56.7c0,0-2.7,0.4-3.1,0c-0.4-0.4-1.2-1.2-1.4-0.8c-0.1,0.4,0.1,0.6-0.1,0.6s-8.1-0.4-8.1-0.4    s-0.6-0.2-0.7-0.6c-0.1-0.4-0.4-0.3-0.5-0.5s-1-0.5-1-0.5s-0.2,0.3,0,0.8s0.4,1,0.2,0.9c-0.2-0.1-20.4-0.8-20.4-0.8l-0.4-0.5    l-0.5,0.4L638,555.7z"/>
	</g>
</g>
</svg>